PathFileType	4	(X/Y/Z)	C:/Users/opensim2020/Desktop/walking_exp_matlab/subject01_walking10_straight_01.trc																																																																																																																															
DataRate	CameraRate	NumFrames	NumMarkers	Units	OrigDataRate	OrigDataStartFrame	OrigNumFrames																																																																																																																											
100	100	4	43	mm	100	1183	349																																																																																																																											
Frame#	Time	LFHD			RFHD			LBHD			RBHD			C7			T10			CLAV			STRN			RBAK			LSHO			LUPA			LELB			LFRM			LWRA			LWRB			LFIN			RSHO			RUPA			RELB			RFRM			RWRA			RWRB			RFIN			LASI			RASI			LPSI			RPSI			LTHI			LKNE			LTIB			LANK			LHEE			LTOE			RTHI			RKNE			RTIB			RANK			RHEE			RTOE			*39			*40			*41			*42		
		X1	Y1	Z1	X2	Y2	Z2	X3	Y3	Z3	X4	Y4	Z4	X5	Y5	Z5	X6	Y6	Z6	X7	Y7	Z7	X8	Y8	Z8	X9	Y9	Z9	X10	Y10	Z10	X11	Y11	Z11	X12	Y12	Z12	X13	Y13	Z13	X14	Y14	Z14	X15	Y15	Z15	X16	Y16	Z16	X17	Y17	Z17	X18	Y18	Z18	X19	Y19	Z19	X20	Y20	Z20	X21	Y21	Z21	X22	Y22	Z22	X23	Y23	Z23	X24	Y24	Z24	X25	Y25	Z25	X26	Y26	Z26	X27	Y27	Z27	X28	Y28	Z28	X29	Y29	Z29	X30	Y30	Z30	X31	Y31	Z31	X32	Y32	Z32	X33	Y33	Z33	X34	Y34	Z34	X35	Y35	Z35	X36	Y36	Z36	X37	Y37	Z37	X38	Y38	Z38	X39	Y39	Z39	X40	Y40	Z40	X41	Y41	Z41	X42	Y42	Z42	X43	Y43	Z43
																																																																																																																																		
262	2.61	491.14169	1678.47803	1406.59497	527.02393	1689.67285	1513.526	390.22192	1612.32446	1439.96899	426.02109	1622.68909	1553.81653	382.1394	1436.46057	1465.0686	343.46823	1144.19348	1467.17749	524.97864	1367.27747	1465.10828	566.24658	1210.52856	1458.68677	326.2511	1242.18445	1539.23254	469.0173	1399.771	1305.08777	450.12796	1215.13647	1220.55823	446.11536	1062.49121	1222.34607	498.30734	959.50458	1202.69946	590.70374	856.86914	1227.89282	537.91125	843.79669	1202.97864	595.32361	781.27972	1196.37085	463.43228	1393.98608	1616.75305	407.25513	1192.78662	1716.32446	409.33185	1067.52026	1717.49658	442.72128	950.90906	1744.89575	526.29443	837.43585	1721.26196	485.07803	837.15784	1762.56592	524.09094	760.6347	1759.15906	514.57361	931.07751	1360.30725	515.33752	937.25354	1577.64063	328.63953	946.71497	1410.75269	329.13098	952.60565	1556.21167	525.59717	604.63397	1291.48755	526.18085	470.99857	1300.88416	381.14975	356.31143	1305.75342	227.39348	207.73822	1365.97681	184.36063	211.43188	1427.80579	294.93515	78.3489	1342.17419	481.33099	604.01355	1622.26807	504.21664	447.9606	1590.54529	459.3754	276.42963	1589.479	444.94669	74.5463	1529.62012	396.67609	38.2206	1478.27734	586.07855	37.2243	1531.14246	504.14255	1719.94434	1495.09094	1972.91272	1024.06421	-3102.1748	2012.49036	1021.93445	-3140.74585	NaN	NaN	NaN
263	2.62	497.78577	1678.72705	1407.56128	534.00464	1689.80969	1514.51904	396.78406	1612.81555	1441.13586	432.8215	1623.06458	1554.94824	388.2103	1436.83813	1466.25	349.57001	1144.39172	1468.19006	530.92834	1367.45496	1465.9563	572.04938	1210.66272	1459.5249	332.23938	1242.51514	1540.43201	474.86728	1400.07434	1306.06653	454.95828	1215.41211	1221.58533	450.05621	1062.97375	1223.52173	501.01773	959.37415	1203.50488	592.45416	855.77612	1228.19751	539.03717	843.44635	1203.18347	596.10828	780.18616	1196.84851	469.63242	1394.19543	1617.68799	413.87668	1192.93799	1717.41724	416.80005	1067.62524	1718.90649	451.22278	951.33069	1746.53699	535.76984	838.56329	1723.01855	494.57254	837.99854	1764.29309	534.14825	761.789	1761.02356	520.31409	931.78802	1361.40295	520.97986	937.32361	1578.66284	334.37698	947.05481	1411.57153	334.74805	952.83722	1557.10767	535.28131	606.18762	1292.43005	537.75684	472.69626	1301.7019	394.31549	356.43542	1306.37207	242.30515	205.45383	1366.49585	198.40353	208.17972	1428.06653	313.97806	78.45034	1342.42224	485.19775	603.82471	1622.70154	507.05438	447.54285	1590.9137	461.17136	276.29282	1589.64514	445.2345	74.75969	1529.70947	396.78403	38.54908	1478.32495	586.22449	37.21066	1531.22363	511.1275	1720.10291	1496.04382	1973.02893	1023.83417	-3101.99927	2012.45618	1021.94684	-3140.66528	NaN	NaN	NaN
264	2.63	504.40524	1678.89233	1408.43909	540.86377	1689.80493	1515.33569	403.30298	1613.36719	1442.27649	439.59653	1623.42041	1555.93958	394.3414	1437.02393	1467.26294	355.27335	1144.71863	1469.2948	536.90814	1367.6449	1466.8313	577.91138	1210.86084	1460.35059	338.21191	1242.93762	1541.56421	480.67896	1400.35071	1306.98193	459.83121	1215.75342	1222.49731	454.02054	1063.45117	1224.58801	503.83032	959.47491	1204.2782	594.15271	854.71808	1228.56042	540.5697	842.90704	1203.66663	596.81531	779.01477	1197.20276	475.77075	1394.41821	1618.60327	420.4249	1193.03674	1718.42444	424.28134	1067.7948	1720.35181	459.63892	951.76508	1748.11658	545.1795	839.68762	1724.6344	504.0209	838.88037	1766.00146	544.1861	762.87775	1762.70789	525.9433	932.47083	1362.37219	526.58728	937.35071	1579.62646	340.08435	947.39954	1412.35791	340.31537	952.97424	1557.79541	544.70966	607.74432	1293.40686	549.1947	474.5705	1302.74768	407.40475	356.10922	1306.90747	258.00198	202.87914	1366.84412	213.25591	204.01395	1428.15271	334.92603	78.64877	1343.10962	489.22879	603.7984	1623.25183	509.92426	447.33411	1591.41028	462.94876	276.30643	1589.94653	445.38129	74.76355	1529.64514	397.0253	38.78471	1478.22644	586.32947	37.12689	1531.24353	518.09674	1720.22864	1497.0116	1973.01953	1023.75336	-3101.96338	2012.50879	1021.96991	-3140.74048	NaN	NaN	NaN
265	2.64	511.07742	1679.08948	1409.38367	547.79156	1689.91956	1516.20093	409.40063	1614.0083	1443.23792	446.27042	1623.76953	1556.9043	400.20767	1437.41357	1468.21021	361.05325	1145.09827	1470.43457	542.84625	1367.83044	1467.55872	583.67249	1211.00732	1461.06482	344.20236	1243.24548	1542.72803	486.35416	1400.65735	1307.81958	464.67783	1216.06091	1223.39075	457.7912	1063.85364	1225.552	506.58902	959.47772	1205.06458	595.70673	853.5675	1228.96887	542.09808	842.46759	1204.24683	597.43622	777.86981	1197.52393	481.83044	1394.55652	1619.29504	426.91013	1193.17786	1719.40796	431.59781	1067.91492	1721.68225	467.99481	952.19122	1749.56897	554.62366	840.91211	1726.19348	513.41302	839.78265	1767.54907	554.32092	764.16235	1764.31348	531.41254	933.08282	1363.24683	532.31018	937.41278	1580.54309	345.69275	947.78192	1413.17957	345.91324	953.28387	1558.66052	553.86633	609.28149	1294.27832	560.21643	476.24323	1303.87341	420.64838	355.48291	1307.49426	274.19574	198.81456	1366.60632	228.75197	198.84375	1427.85815	354.76318	77.46918	1343.15588	493.06866	603.70544	1623.82239	512.68982	447.10986	1591.76147	464.69312	276.32806	1590.18323	445.78336	74.92483	1529.78223	397.1333	39.12576	1478.07312	586.42096	37.02158	1531.25842	525.04602	1720.38379	1497.88	1973.12903	1023.43671	-3101.96973	2012.53894	1022.04871	-3140.66699	NaN	NaN	NaN
